<svg width="129" height="129" viewBox="0 0 129 129" fill="none" xmlns="http://www.w3.org/2000/svg">
<path fill-rule="evenodd" clip-rule="evenodd" d="M57.8631 29H44.236L33 48.4612L44.236 67.9225H66.7079L77.9438 48.4612L71.4568 37.2254H66.2671L72.7542 48.4612L64.113 63.4281H46.8308L38.1897 48.4612L46.8308 33.4944L55.2683 33.4944L57.8631 29Z" fill="#00AEF4"/>
<path fill-rule="evenodd" clip-rule="evenodd" d="M81.1912 33.4944L89.8323 48.4612L81.1912 63.4281H72.7547L70.1599 67.9225H83.786L95.0219 48.4612L83.786 29H61.3141L50.0781 48.4612L56.5652 59.6972H61.7548L55.2678 48.4612L63.9089 33.4944L81.1912 33.4944Z" fill="#FF6B6B"/>
<path d="M0.757812 91.9225V83.1952H4.25213C4.89418 83.1952 5.42969 83.2904 5.85866 83.4808C6.28764 83.6711 6.61009 83.9353 6.82599 84.2734C7.0419 84.6086 7.14986 84.995 7.14986 85.4325C7.14986 85.7734 7.08168 86.0731 6.94531 86.3316C6.80895 86.5873 6.62145 86.7975 6.38281 86.9623C6.14702 87.1242 5.87713 87.2393 5.57315 87.3075V87.3927C5.90554 87.4069 6.21662 87.5006 6.50639 87.6739C6.79901 87.8472 7.03622 88.0901 7.21804 88.4026C7.39986 88.7123 7.49077 89.0816 7.49077 89.5106C7.49077 89.9737 7.37571 90.387 7.1456 90.7506C6.91832 91.1114 6.58168 91.397 6.13565 91.6072C5.68963 91.8174 5.13991 91.9225 4.48651 91.9225H0.757812ZM2.60298 90.414H4.10724C4.62145 90.414 4.99645 90.316 5.23224 90.12C5.46804 89.9211 5.58594 89.6569 5.58594 89.3273C5.58594 89.0859 5.5277 88.8728 5.41122 88.6881C5.29474 88.5035 5.12855 88.3586 4.91264 88.2535C4.69957 88.1484 4.44531 88.0958 4.14986 88.0958H2.60298V90.414ZM2.60298 86.8472H3.97088C4.22372 86.8472 4.44815 86.8032 4.64418 86.7151C4.84304 86.6242 4.99929 86.4964 5.11293 86.3316C5.2294 86.1668 5.28764 85.9694 5.28764 85.7393C5.28764 85.4239 5.17543 85.1697 4.95099 84.9765C4.7294 84.7833 4.41406 84.6867 4.00497 84.6867H2.60298V86.8472Z" fill="#00AEF4"/>
<path d="M9.29141 91.9225V83.1952H11.1366V90.4012H14.8781V91.9225H9.29141Z" fill="#00AEF4"/>
<path d="M24.38 87.5589C24.38 88.5106 24.1996 89.3202 23.8389 89.9879C23.4809 90.6555 22.9923 91.1654 22.3729 91.5177C21.7565 91.8671 21.0633 92.0418 20.2934 92.0418C19.5178 92.0418 18.8218 91.8657 18.2053 91.5134C17.5888 91.1612 17.1016 90.6512 16.7437 89.9836C16.3857 89.316 16.2067 88.5077 16.2067 87.5589C16.2067 86.6072 16.3857 85.7975 16.7437 85.1299C17.1016 84.4623 17.5888 83.9538 18.2053 83.6043C18.8218 83.2521 19.5178 83.0759 20.2934 83.0759C21.0633 83.0759 21.7565 83.2521 22.3729 83.6043C22.9923 83.9538 23.4809 84.4623 23.8389 85.1299C24.1996 85.7975 24.38 86.6072 24.38 87.5589ZM22.5093 87.5589C22.5093 86.9424 22.417 86.4225 22.2323 85.9992C22.0505 85.5759 21.7934 85.2549 21.461 85.0362C21.1286 84.8174 20.7394 84.708 20.2934 84.708C19.8474 84.708 19.4582 84.8174 19.1258 85.0362C18.7934 85.2549 18.5349 85.5759 18.3502 85.9992C18.1684 86.4225 18.0775 86.9424 18.0775 87.5589C18.0775 88.1754 18.1684 88.6952 18.3502 89.1185C18.5349 89.5418 18.7934 89.8629 19.1258 90.0816C19.4582 90.3004 19.8474 90.4097 20.2934 90.4097C20.7394 90.4097 21.1286 90.3004 21.461 90.0816C21.7934 89.8629 22.0505 89.5418 22.2323 89.1185C22.417 88.6952 22.5093 88.1754 22.5093 87.5589Z" fill="#00AEF4"/>
<path d="M34.0472 86.2506H32.1807C32.1466 86.0092 32.077 85.7947 31.9719 85.6072C31.8668 85.4168 31.7318 85.2549 31.567 85.1214C31.4023 84.9879 31.2119 84.8856 30.996 84.8146C30.783 84.7435 30.5514 84.708 30.3014 84.708C29.8497 84.708 29.4562 84.8202 29.121 85.0447C28.7858 85.2663 28.5259 85.5901 28.3412 86.0163C28.1565 86.4396 28.0642 86.9538 28.0642 87.5589C28.0642 88.181 28.1565 88.7038 28.3412 89.1271C28.5287 89.5504 28.7901 89.87 29.1253 90.0859C29.4605 90.3018 29.8483 90.4097 30.2886 90.4097C30.5358 90.4097 30.7645 90.3771 30.9747 90.3117C31.1878 90.2464 31.3767 90.1512 31.5415 90.0262C31.7063 89.8984 31.8426 89.7435 31.9506 89.5617C32.0614 89.3799 32.1381 89.1725 32.1807 88.9396L34.0472 88.9481C33.9989 89.3487 33.8781 89.735 33.6849 90.1072C33.4946 90.4765 33.2375 90.8075 32.9136 91.1001C32.5926 91.3898 32.2091 91.62 31.7631 91.7904C31.3199 91.958 30.8185 92.0418 30.2588 92.0418C29.4804 92.0418 28.7844 91.8657 28.1707 91.5134C27.5599 91.1612 27.077 90.6512 26.7219 89.9836C26.3696 89.316 26.1935 88.5077 26.1935 87.5589C26.1935 86.6072 26.3724 85.7975 26.7304 85.1299C27.0884 84.4623 27.5741 83.9538 28.1878 83.6043C28.8014 83.2521 29.4918 83.0759 30.2588 83.0759C30.7645 83.0759 31.2332 83.147 31.6651 83.289C32.0997 83.431 32.4847 83.6384 32.8199 83.9112C33.1551 84.181 33.4278 84.512 33.6381 84.9041C33.8511 85.2961 33.9875 85.745 34.0472 86.2506Z" fill="#00AEF4"/>
<path d="M35.9703 91.9225V83.1952H37.8155V87.0433H37.9305L41.0712 83.1952H43.2828L40.0442 87.1029L43.3212 91.9225H41.1138L38.7232 88.3345L37.8155 89.4424V91.9225H35.9703Z" fill="#00AEF4"/>
<path d="M52.0518 86.2506H50.1854C50.1513 86.0092 50.0817 85.7947 49.9766 85.6072C49.8714 85.4168 49.7365 85.2549 49.5717 85.1214C49.407 84.9879 49.2166 84.8856 49.0007 84.8146C48.7876 84.7435 48.5561 84.708 48.3061 84.708C47.8544 84.708 47.4609 84.8202 47.1257 85.0447C46.7905 85.2663 46.5305 85.5901 46.3459 86.0163C46.1612 86.4396 46.0689 86.9538 46.0689 87.5589C46.0689 88.181 46.1612 88.7038 46.3459 89.1271C46.5334 89.5504 46.7947 89.87 47.13 90.0859C47.4652 90.3018 47.853 90.4097 48.2933 90.4097C48.5405 90.4097 48.7692 90.3771 48.9794 90.3117C49.1925 90.2464 49.3814 90.1512 49.5462 90.0262C49.7109 89.8984 49.8473 89.7435 49.9553 89.5617C50.0661 89.3799 50.1428 89.1725 50.1854 88.9396L52.0518 88.9481C52.0036 89.3487 51.8828 89.735 51.6896 90.1072C51.4993 90.4765 51.2422 90.8075 50.9183 91.1001C50.5973 91.3898 50.2138 91.62 49.7678 91.7904C49.3246 91.958 48.8232 92.0418 48.2635 92.0418C47.4851 92.0418 46.7891 91.8657 46.1754 91.5134C45.5646 91.1612 45.0817 90.6512 44.7266 89.9836C44.3743 89.316 44.1982 88.5077 44.1982 87.5589C44.1982 86.6072 44.3771 85.7975 44.7351 85.1299C45.093 84.4623 45.5788 83.9538 46.1925 83.6043C46.8061 83.2521 47.4965 83.0759 48.2635 83.0759C48.7692 83.0759 49.2379 83.147 49.6697 83.289C50.1044 83.431 50.4893 83.6384 50.8246 83.9112C51.1598 84.181 51.4325 84.512 51.6428 84.9041C51.8558 85.2961 51.9922 85.745 52.0518 86.2506Z" fill="#00AEF4"/>
<path d="M53.975 91.9225V83.1952H55.8202V86.7961H59.5659V83.1952H61.4068V91.9225H59.5659V88.3174H55.8202V91.9225H53.975Z" fill="#00AEF4"/>
<path d="M65.0324 91.9225H63.0551L66.0679 83.1952H68.4457L71.4543 91.9225H69.477L67.2909 85.1896H67.2227L65.0324 91.9225ZM64.9088 88.4921H69.5793V89.9325H64.9088V88.4921Z" fill="#00AEF4"/>
<path d="M74.9499 83.1952V91.9225H73.1047V83.1952H74.9499Z" fill="#00AEF4"/>
<path d="M84.3677 83.1952V91.9225H82.7739L78.9771 86.4296H78.9131V91.9225H77.068V83.1952H78.6873L82.4543 88.6839H82.531V83.1952H84.3677Z" fill="#00AEF4"/>
<path d="M86.4922 91.9225V83.1952H89.9865C90.6285 83.1952 91.1641 83.2904 91.593 83.4808C92.022 83.6711 92.3445 83.9353 92.5604 84.2734C92.7763 84.6086 92.8842 84.995 92.8842 85.4325C92.8842 85.7734 92.8161 86.0731 92.6797 86.3316C92.5433 86.5873 92.3558 86.7975 92.1172 86.9623C91.8814 87.1242 91.6115 87.2393 91.3075 87.3075V87.3927C91.6399 87.4069 91.951 87.5006 92.2408 87.6739C92.5334 87.8472 92.7706 88.0901 92.9524 88.4026C93.1342 88.7123 93.2251 89.0816 93.2251 89.5106C93.2251 89.9737 93.1101 90.387 92.88 90.7506C92.6527 91.1114 92.316 91.397 91.87 91.6072C91.424 91.8174 90.8743 91.9225 90.2209 91.9225H86.4922ZM88.3374 90.414H89.8416C90.3558 90.414 90.7308 90.316 90.9666 90.12C91.2024 89.9211 91.3203 89.6569 91.3203 89.3273C91.3203 89.0859 91.2621 88.8728 91.1456 88.6881C91.0291 88.5035 90.8629 88.3586 90.647 88.2535C90.434 88.1484 90.1797 88.0958 89.8842 88.0958H88.3374V90.414ZM88.3374 86.8472H89.7053C89.9581 86.8472 90.1825 86.8032 90.3785 86.7151C90.5774 86.6242 90.7337 86.4964 90.8473 86.3316C90.9638 86.1668 91.022 85.9694 91.022 85.7393C91.022 85.4239 90.9098 85.1697 90.6854 84.9765C90.4638 84.7833 90.1484 84.6867 89.7393 84.6867H88.3374V86.8472Z" fill="#00AEF4"/>
<path d="M95.0258 91.9225V83.1952H98.469C99.1281 83.1952 99.6906 83.3131 100.156 83.5489C100.625 83.7819 100.982 84.1129 101.226 84.5418C101.473 84.968 101.597 85.4694 101.597 86.0461C101.597 86.6256 101.472 87.1242 101.222 87.5418C100.972 87.9566 100.61 88.2748 100.135 88.4964C99.6636 88.718 99.0925 88.8288 98.4221 88.8288H96.1167V87.3458H98.1238C98.4761 87.3458 98.7687 87.2975 99.0016 87.2009C99.2346 87.1043 99.4079 86.9595 99.5215 86.7663C99.638 86.5731 99.6962 86.333 99.6962 86.0461C99.6962 85.7563 99.638 85.512 99.5215 85.3131C99.4079 85.1143 99.2332 84.9637 98.9974 84.8614C98.7644 84.7563 98.4704 84.7038 98.1153 84.7038H96.8709V91.9225H95.0258ZM99.7388 87.9509L101.908 91.9225H99.8709L97.7488 87.9509H99.7388Z" fill="#00AEF4"/>
<path d="M103.501 91.9225V83.1952H109.381V84.7166H105.346V86.7961H109.079V88.3174H105.346V90.4012H109.399V91.9225H103.501Z" fill="#00AEF4"/>
<path d="M112.953 91.9225H110.975L113.988 83.1952H116.366L119.375 91.9225H117.397L115.211 85.1896H115.143L112.953 91.9225ZM112.829 88.4921H117.5V89.9325H112.829V88.4921Z" fill="#00AEF4"/>
<path d="M121.025 91.9225V83.1952H122.87V87.0433H122.985L126.126 83.1952H128.338L125.099 87.1029L128.376 91.9225H126.168L123.778 88.3345L122.87 89.4424V91.9225H121.025Z" fill="#00AEF4"/>
</svg>
