<svg width="64" height="64" viewBox="0 0 64 64" fill="none" xmlns="http://www.w3.org/2000/svg">
<g clip-path="url(#clip0_166_98)">
<path d="M2.3689 54.1742V52.7675H3.66159C4.15404 52.7675 4.61132 52.8939 4.61132 53.4582C4.61132 53.9636 4.25956 54.1742 3.76711 54.1742H2.3689ZM0.988281 51.7399V57.754H4.03093C5.16532 57.754 6.24696 57.2318 6.24696 56.0104C6.24696 55.2608 5.86882 54.6964 5.09497 54.4858C5.65777 54.2247 5.94797 53.8373 5.94797 53.2308C5.94797 52.1105 5.13894 51.7399 3.94299 51.7399H0.988281ZM2.3689 56.7264V55.0755H3.87264C4.47062 55.0755 4.86633 55.3197 4.86633 55.9346C4.86633 56.5579 4.38268 56.7264 3.84626 56.7264H2.3689Z" fill="#00AEF4"/>
<path d="M7.61968 51.7399V57.754H12.0605V56.6422H9.0003V51.7399H7.61968Z" fill="#00AEF4"/>
<path d="M14.3801 54.7722C14.3801 53.7193 14.8462 52.7085 16.0861 52.7085C17.326 52.7085 17.7921 53.7193 17.7921 54.7722C17.7921 55.7746 17.326 56.7854 16.0861 56.7854C14.8462 56.7854 14.3801 55.7746 14.3801 54.7722ZM12.9995 54.7722C12.9995 56.5243 14.1515 57.8888 16.0861 57.8888C18.0207 57.8888 19.1727 56.5243 19.1727 54.7722C19.1727 52.9865 18.0207 51.5967 16.0861 51.5967C14.1515 51.5967 12.9995 52.9865 12.9995 54.7722Z" fill="#00AEF4"/>
<path d="M24.742 53.7614H26.0786C25.9115 52.3716 24.742 51.5967 23.3701 51.5967C21.4355 51.5967 20.2835 52.9865 20.2835 54.7722C20.2835 56.5243 21.4355 57.8888 23.3701 57.8888C24.9179 57.8888 25.9907 56.9538 26.1314 55.4377H24.7947C24.6892 56.2463 24.2143 56.7854 23.3701 56.7854C22.1302 56.7854 21.6642 55.7746 21.6642 54.7722C21.6642 53.7193 22.1302 52.7085 23.3701 52.7085C24.0473 52.7085 24.6452 53.1634 24.742 53.7614Z" fill="#00AEF4"/>
<path d="M27.5139 51.7399V57.754H28.8945V55.8167L29.6859 55.0502L31.5766 57.754H33.309L30.6181 54.1152L33.0715 51.7399H31.348L28.8945 54.2331V51.7399H27.5139Z" fill="#00AEF4"/>
<path d="M38.4857 53.7614H39.8223C39.6553 52.3716 38.4857 51.5967 37.1139 51.5967C35.1792 51.5967 34.0272 52.9865 34.0272 54.7722C34.0272 56.5243 35.1792 57.8888 37.1139 57.8888C38.6616 57.8888 39.7344 56.9538 39.8751 55.4377H38.5384C38.4329 56.2463 37.9581 56.7854 37.1139 56.7854C35.8739 56.7854 35.4079 55.7746 35.4079 54.7722C35.4079 53.7193 35.8739 52.7085 37.1139 52.7085C37.791 52.7085 38.3889 53.1634 38.4857 53.7614Z" fill="#00AEF4"/>
<path d="M41.2576 51.7399V57.754H42.6382V55.1597H45.1796V57.754H46.5602V51.7399H45.1796V54.0478H42.6382V51.7399H41.2576Z" fill="#00AEF4"/>
<path d="M49.7982 55.4292L50.616 53.2224H50.6336L51.425 55.4292H49.7982ZM49.9301 51.7399L47.5558 57.754H48.9452L49.4376 56.4148H51.7856L52.2604 57.754H53.6938L51.3459 51.7399H49.9301Z" fill="#00AEF4"/>
<path d="M54.6749 51.7399V57.754H56.0556V51.7399H54.6749Z" fill="#00AEF4"/>
<path d="M57.7081 51.7399V57.754H59.0008V53.7278H59.0184L61.6301 57.754H63.0108V51.7399H61.7181V55.7746H61.7005L59.0799 51.7399H57.7081Z" fill="#00AEF4"/>
<path fill-rule="evenodd" clip-rule="evenodd" d="M25.8501 5.48315L12.2242 5.48315L0.988281 24.9444L12.2242 44.4056H34.6961L45.9321 24.9444L39.445 13.7084H34.2554L40.7424 24.9444L32.1013 39.9113H14.8191L6.17795 24.9444L14.8191 9.97754H23.2553L25.8501 5.48315Z" fill="#00AEF4"/>
<path fill-rule="evenodd" clip-rule="evenodd" d="M49.1794 9.97754L57.8206 24.9444L49.1794 39.9113H40.7432L38.1484 44.4056H51.7743L63.0102 24.9444L51.7743 5.48316L29.3024 5.48315L18.0664 24.9444L24.5535 36.1804H29.7432L23.2561 24.9444L31.8972 9.97754L49.1794 9.97754Z" fill="#FF6B6B"/>
</g>
<defs>
<clipPath id="clip0_166_98">
<rect width="62.0225" height="62.0225" fill="white" transform="translate(0.988281 0.98877)"/>
</clipPath>
</defs>
</svg>
