<svg width="129" height="64" viewBox="0 0 129 64" fill="none" xmlns="http://www.w3.org/2000/svg">
<path fill-rule="evenodd" clip-rule="evenodd" d="M57.8631 0H44.236L33 19.4612L44.236 38.9225H66.7079L77.9438 19.4612L71.4568 8.22536H66.2671L72.7542 19.4612L64.113 34.4281H46.8308L38.1897 19.4612L46.8308 4.49438L55.2683 4.49438L57.8631 0Z" fill="#00AEF4"/>
<path fill-rule="evenodd" clip-rule="evenodd" d="M81.1912 4.49438L89.8323 19.4612L81.1912 34.4281H72.7547L70.1599 38.9225H83.786L95.0219 19.4612L83.786 0H61.3141L50.0781 19.4612L56.5652 30.6972H61.7548L55.2678 19.4612L63.9089 4.49438L81.1912 4.49438Z" fill="#FF6B6B"/>
<path d="M0.757812 62.9225V54.1952H4.25213C4.89418 54.1952 5.42969 54.2904 5.85866 54.4808C6.28764 54.6711 6.61009 54.9353 6.82599 55.2734C7.0419 55.6086 7.14986 55.995 7.14986 56.4325C7.14986 56.7734 7.08168 57.0731 6.94531 57.3316C6.80895 57.5873 6.62145 57.7975 6.38281 57.9623C6.14702 58.1242 5.87713 58.2393 5.57315 58.3075V58.3927C5.90554 58.4069 6.21662 58.5006 6.50639 58.6739C6.79901 58.8472 7.03622 59.0901 7.21804 59.4026C7.39986 59.7123 7.49077 60.0816 7.49077 60.5106C7.49077 60.9737 7.37571 61.387 7.1456 61.7506C6.91832 62.1114 6.58168 62.397 6.13565 62.6072C5.68963 62.8174 5.13991 62.9225 4.48651 62.9225H0.757812ZM2.60298 61.414H4.10724C4.62145 61.414 4.99645 61.316 5.23224 61.12C5.46804 60.9211 5.58594 60.6569 5.58594 60.3273C5.58594 60.0859 5.5277 59.8728 5.41122 59.6881C5.29474 59.5035 5.12855 59.3586 4.91264 59.2535C4.69957 59.1484 4.44531 59.0958 4.14986 59.0958H2.60298V61.414ZM2.60298 57.8472H3.97088C4.22372 57.8472 4.44815 57.8032 4.64418 57.7151C4.84304 57.6242 4.99929 57.4964 5.11293 57.3316C5.2294 57.1668 5.28764 56.9694 5.28764 56.7393C5.28764 56.4239 5.17543 56.1697 4.95099 55.9765C4.7294 55.7833 4.41406 55.6867 4.00497 55.6867H2.60298V57.8472Z" fill="#00AEF4"/>
<path d="M9.29141 62.9225V54.1952H11.1366V61.4012H14.8781V62.9225H9.29141Z" fill="#00AEF4"/>
<path d="M24.38 58.5589C24.38 59.5106 24.1996 60.3202 23.8389 60.9879C23.4809 61.6555 22.9923 62.1654 22.3729 62.5177C21.7565 62.8671 21.0633 63.0418 20.2934 63.0418C19.5178 63.0418 18.8218 62.8657 18.2053 62.5134C17.5888 62.1612 17.1016 61.6512 16.7437 60.9836C16.3857 60.316 16.2067 59.5077 16.2067 58.5589C16.2067 57.6072 16.3857 56.7975 16.7437 56.1299C17.1016 55.4623 17.5888 54.9538 18.2053 54.6043C18.8218 54.2521 19.5178 54.0759 20.2934 54.0759C21.0633 54.0759 21.7565 54.2521 22.3729 54.6043C22.9923 54.9538 23.4809 55.4623 23.8389 56.1299C24.1996 56.7975 24.38 57.6072 24.38 58.5589ZM22.5093 58.5589C22.5093 57.9424 22.417 57.4225 22.2323 56.9992C22.0505 56.5759 21.7934 56.2549 21.461 56.0362C21.1286 55.8174 20.7394 55.708 20.2934 55.708C19.8474 55.708 19.4582 55.8174 19.1258 56.0362C18.7934 56.2549 18.5349 56.5759 18.3502 56.9992C18.1684 57.4225 18.0775 57.9424 18.0775 58.5589C18.0775 59.1754 18.1684 59.6952 18.3502 60.1185C18.5349 60.5418 18.7934 60.8629 19.1258 61.0816C19.4582 61.3004 19.8474 61.4097 20.2934 61.4097C20.7394 61.4097 21.1286 61.3004 21.461 61.0816C21.7934 60.8629 22.0505 60.5418 22.2323 60.1185C22.417 59.6952 22.5093 59.1754 22.5093 58.5589Z" fill="#00AEF4"/>
<path d="M34.0472 57.2506H32.1807C32.1466 57.0092 32.077 56.7947 31.9719 56.6072C31.8668 56.4168 31.7318 56.2549 31.567 56.1214C31.4023 55.9879 31.2119 55.8856 30.996 55.8146C30.783 55.7435 30.5514 55.708 30.3014 55.708C29.8497 55.708 29.4562 55.8202 29.121 56.0447C28.7858 56.2663 28.5259 56.5901 28.3412 57.0163C28.1565 57.4396 28.0642 57.9538 28.0642 58.5589C28.0642 59.181 28.1565 59.7038 28.3412 60.1271C28.5287 60.5504 28.7901 60.87 29.1253 61.0859C29.4605 61.3018 29.8483 61.4097 30.2886 61.4097C30.5358 61.4097 30.7645 61.3771 30.9747 61.3117C31.1878 61.2464 31.3767 61.1512 31.5415 61.0262C31.7062 60.8984 31.8426 60.7435 31.9506 60.5617C32.0614 60.3799 32.1381 60.1725 32.1807 59.9396L34.0472 59.9481C33.9989 60.3487 33.8781 60.735 33.6849 61.1072C33.4946 61.4765 33.2375 61.8075 32.9136 62.1001C32.5926 62.3898 32.2091 62.62 31.7631 62.7904C31.3199 62.958 30.8185 63.0418 30.2588 63.0418C29.4804 63.0418 28.7844 62.8657 28.1707 62.5134C27.5599 62.1612 27.077 61.6512 26.7219 60.9836C26.3696 60.316 26.1935 59.5077 26.1935 58.5589C26.1935 57.6072 26.3724 56.7975 26.7304 56.1299C27.0884 55.4623 27.5741 54.9538 28.1878 54.6043C28.8014 54.2521 29.4918 54.0759 30.2588 54.0759C30.7645 54.0759 31.2332 54.147 31.6651 54.289C32.0997 54.431 32.4847 54.6384 32.8199 54.9112C33.1551 55.181 33.4278 55.512 33.6381 55.9041C33.8511 56.2961 33.9875 56.745 34.0472 57.2506Z" fill="#00AEF4"/>
<path d="M35.9703 62.9225V54.1952H37.8155V58.0433H37.9305L41.0712 54.1952H43.2828L40.0442 58.1029L43.3212 62.9225H41.1138L38.7232 59.3345L37.8155 60.4424V62.9225H35.9703Z" fill="#00AEF4"/>
<path d="M52.0518 57.2506H50.1854C50.1513 57.0092 50.0817 56.7947 49.9766 56.6072C49.8714 56.4168 49.7365 56.2549 49.5717 56.1214C49.407 55.9879 49.2166 55.8856 49.0007 55.8146C48.7876 55.7435 48.5561 55.708 48.3061 55.708C47.8544 55.708 47.4609 55.8202 47.1257 56.0447C46.7905 56.2663 46.5305 56.5901 46.3459 57.0163C46.1612 57.4396 46.0689 57.9538 46.0689 58.5589C46.0689 59.181 46.1612 59.7038 46.3459 60.1271C46.5334 60.5504 46.7947 60.87 47.13 61.0859C47.4652 61.3018 47.853 61.4097 48.2933 61.4097C48.5405 61.4097 48.7692 61.3771 48.9794 61.3117C49.1925 61.2464 49.3814 61.1512 49.5462 61.0262C49.7109 60.8984 49.8473 60.7435 49.9553 60.5617C50.0661 60.3799 50.1428 60.1725 50.1854 59.9396L52.0518 59.9481C52.0036 60.3487 51.8828 60.735 51.6896 61.1072C51.4993 61.4765 51.2422 61.8075 50.9183 62.1001C50.5973 62.3898 50.2138 62.62 49.7678 62.7904C49.3246 62.958 48.8232 63.0418 48.2635 63.0418C47.4851 63.0418 46.7891 62.8657 46.1754 62.5134C45.5646 62.1612 45.0817 61.6512 44.7266 60.9836C44.3743 60.316 44.1982 59.5077 44.1982 58.5589C44.1982 57.6072 44.3771 56.7975 44.7351 56.1299C45.093 55.4623 45.5788 54.9538 46.1925 54.6043C46.8061 54.2521 47.4965 54.0759 48.2635 54.0759C48.7692 54.0759 49.2379 54.147 49.6697 54.289C50.1044 54.431 50.4893 54.6384 50.8246 54.9112C51.1598 55.181 51.4325 55.512 51.6428 55.9041C51.8558 56.2961 51.9922 56.745 52.0518 57.2506Z" fill="#00AEF4"/>
<path d="M53.975 62.9225V54.1952H55.8202V57.7961H59.5659V54.1952H61.4068V62.9225H59.5659V59.3174H55.8202V62.9225H53.975Z" fill="#00AEF4"/>
<path d="M65.0324 62.9225H63.0551L66.0679 54.1952H68.4457L71.4543 62.9225H69.477L67.2909 56.1896H67.2227L65.0324 62.9225ZM64.9088 59.4921H69.5793V60.9325H64.9088V59.4921Z" fill="#00AEF4"/>
<path d="M74.9499 54.1952V62.9225H73.1047V54.1952H74.9499Z" fill="#00AEF4"/>
<path d="M84.3677 54.1952V62.9225H82.7739L78.9771 57.4296H78.9131V62.9225H77.068V54.1952H78.6873L82.4543 59.6839H82.531V54.1952H84.3677Z" fill="#00AEF4"/>
<path d="M86.4922 62.9225V54.1952H89.9865C90.6285 54.1952 91.1641 54.2904 91.593 54.4808C92.022 54.6711 92.3445 54.9353 92.5604 55.2734C92.7763 55.6086 92.8842 55.995 92.8842 56.4325C92.8842 56.7734 92.816 57.0731 92.6797 57.3316C92.5433 57.5873 92.3558 57.7975 92.1172 57.9623C91.8814 58.1242 91.6115 58.2393 91.3075 58.3075V58.3927C91.6399 58.4069 91.951 58.5006 92.2408 58.6739C92.5334 58.8472 92.7706 59.0901 92.9524 59.4026C93.1342 59.7123 93.2251 60.0816 93.2251 60.5106C93.2251 60.9737 93.1101 61.387 92.88 61.7506C92.6527 62.1114 92.316 62.397 91.87 62.6072C91.424 62.8174 90.8743 62.9225 90.2209 62.9225H86.4922ZM88.3374 61.414H89.8416C90.3558 61.414 90.7308 61.316 90.9666 61.12C91.2024 60.9211 91.3203 60.6569 91.3203 60.3273C91.3203 60.0859 91.2621 59.8728 91.1456 59.6881C91.0291 59.5035 90.8629 59.3586 90.647 59.2535C90.434 59.1484 90.1797 59.0958 89.8842 59.0958H88.3374V61.414ZM88.3374 57.8472H89.7053C89.9581 57.8472 90.1825 57.8032 90.3785 57.7151C90.5774 57.6242 90.7337 57.4964 90.8473 57.3316C90.9638 57.1668 91.022 56.9694 91.022 56.7393C91.022 56.4239 90.9098 56.1697 90.6854 55.9765C90.4638 55.7833 90.1484 55.6867 89.7393 55.6867H88.3374V57.8472Z" fill="#00AEF4"/>
<path d="M95.0258 62.9225V54.1952H98.469C99.1281 54.1952 99.6906 54.3131 100.156 54.5489C100.625 54.7819 100.982 55.1129 101.226 55.5418C101.473 55.968 101.597 56.4694 101.597 57.0461C101.597 57.6256 101.472 58.1242 101.222 58.5418C100.972 58.9566 100.61 59.2748 100.135 59.4964C99.6636 59.718 99.0925 59.8288 98.4221 59.8288H96.1167V58.3458H98.1238C98.4761 58.3458 98.7687 58.2975 99.0016 58.2009C99.2346 58.1043 99.4079 57.9595 99.5215 57.7663C99.638 57.5731 99.6962 57.333 99.6962 57.0461C99.6962 56.7563 99.638 56.512 99.5215 56.3131C99.4079 56.1143 99.2332 55.9637 98.9974 55.8614C98.7644 55.7563 98.4704 55.7038 98.1153 55.7038H96.8709V62.9225H95.0258ZM99.7388 58.9509L101.908 62.9225H99.8709L97.7488 58.9509H99.7388Z" fill="#00AEF4"/>
<path d="M103.501 62.9225V54.1952H109.381V55.7166H105.346V57.7961H109.079V59.3174H105.346V61.4012H109.399V62.9225H103.501Z" fill="#00AEF4"/>
<path d="M112.953 62.9225H110.975L113.988 54.1952H116.366L119.375 62.9225H117.397L115.211 56.1896H115.143L112.953 62.9225ZM112.829 59.4921H117.5V60.9325H112.829V59.4921Z" fill="#00AEF4"/>
<path d="M121.025 62.9225V54.1952H122.87V58.0433H122.985L126.126 54.1952H128.338L125.099 58.1029L128.376 62.9225H126.168L123.778 59.3345L122.87 60.4424V62.9225H121.025Z" fill="#00AEF4"/>
</svg>
